<?xml version="1.0" encoding="UTF-8"?>
<svg id="Layer_1" data-name="Layer 1" xmlns="http://www.w3.org/2000/svg" viewBox="0 0 167.05 60.29">
  <defs>
    <style>
      .art-logo-bg {
        fill: #0051ff;
      }
    </style>
  </defs>
  <path id="Logo" class="art-logo-bg" d="M16.5,53.12c-.04-3.84,3.04-6.98,6.88-7.02,3.84-.04,6.98,3.04,7.02,6.88,.04,3.84-3.04,6.98-6.88,7.02-.02,0-.04,0-.06,0-3.82,.02-6.94-3.06-6.96-6.88h0Zm87.08,5c-.57-.86-.85-1.89-.8-2.92v-10.38h2.65v3.03h2.86v2.06h-2.86v5.29c0,1.3,.53,1.95,1.58,1.94,.4,0,.8-.09,1.17-.25l.46,1.92c-.34,.12-.69,.21-1.04,.28-.41,.08-.83,.13-1.25,.12-1.05,.11-2.08-.3-2.76-1.11h0Zm-9.36,.67c-.71-.26-1.37-.64-1.96-1.1l1.24-1.67c.46,.37,.96,.67,1.5,.92,.51,.22,1.06,.33,1.61,.33,.48,.04,.96-.09,1.35-.37,.28-.24,.44-.59,.43-.96,0-.48-.31-.91-.75-1.08-.5-.25-1.05-.49-1.64-.71-.76-.28-1.48-.65-2.14-1.12-.68-.48-1.07-1.28-1.02-2.12-.02-.92,.39-1.8,1.11-2.39,.85-.66,1.91-.99,2.98-.94,.72-.01,1.44,.13,2.1,.41,.58,.24,1.12,.56,1.62,.93l-1.22,1.59c-.37-.27-.78-.5-1.2-.69-.4-.17-.83-.26-1.27-.26-.44-.04-.89,.09-1.25,.35-.26,.21-.41,.54-.4,.87,0,.45,.29,.85,.71,1,.53,.25,1.07,.47,1.62,.66,.77,.29,1.5,.66,2.18,1.12,.72,.51,1.12,1.37,1.04,2.25,0,.94-.4,1.83-1.12,2.43-.92,.73-2.07,1.09-3.24,1.01-.78,0-1.56-.16-2.28-.45h0Zm-12.65-.71c-.6-.97-.89-2.11-.82-3.26v-6.97h2.63v6.63c-.06,.67,.09,1.35,.41,1.95,.32,.4,.82,.61,1.32,.57,.46,0,.91-.12,1.29-.36,.46-.33,.87-.72,1.2-1.18v-7.6h2.63v11.11h-2.14l-.21-1.63h-.07c-.45,.54-.99,1.01-1.6,1.38-.61,.35-1.3,.53-2.01,.52-1.01,.08-2-.35-2.63-1.15h0Zm-9.21,.88v-11.11h2.17l.18,1.97h.09c.54-1.3,1.77-2.17,3.18-2.24,.44-.02,.87,.06,1.28,.23l-.46,2.26c-.18-.06-.36-.1-.55-.14-.2-.03-.41-.05-.62-.04-.51,.02-1,.2-1.4,.51-.58,.46-1.01,1.07-1.25,1.78v6.79h-2.63Zm-7.7,0v-12.58h-4.32v-2.22h11.28v2.22h-4.32v12.58h-2.65ZM6.95,37.86h-.04c-.17,0-.35,0-.52-.03-.11,0-.23-.02-.34-.04l-.18-.03c-3.14-.48-5.54-3.03-5.84-6.18,0-.04,0-.07,0-.11-.01-.17-.03-.33-.03-.5v-.03c0-.23,.02-.46,.04-.69,0,0,0-.02,0-.02,.12-1.14,.52-2.23,1.17-3.18L17.58,3.2l.03-.04h0C19.73-.07,24.05-.97,27.28,1.14c.81,.53,1.49,1.22,2.02,2.02h0s.02,.03,.03,.04l16.37,23.85c2.15,3.13,1.35,7.41-1.78,9.56-.02,.02-.05,.03-.07,.05-3.19,2.14-7.51,1.33-9.7-1.83l-10.69-15.58-.05-.07c-2.13-3.14-6.34-4.08-9.6-2.14-2.82,1.74-4,5.25-2.81,8.34,.19,.5,.44,.97,.74,1.41l1.53,2.23c.4,.57,.63,1.25,.64,1.94h0c-.02,3.83-3.13,6.91-6.95,6.9h0Zm154.79-1.28c-.57-.86-.85-1.89-.8-2.92v-10.38h2.65v3.03h2.85v2.06h-2.85v5.29c0,1.3,.53,1.95,1.58,1.94,.4,0,.8-.09,1.16-.25l.46,1.92c-.34,.12-.69,.21-1.04,.28-.41,.09-.83,.13-1.24,.12-1.05,.11-2.08-.3-2.76-1.11Zm-24.24-.43c-1.11-1.14-1.69-2.69-1.6-4.28-.03-1.09,.23-2.16,.74-3.12,.45-.83,1.12-1.53,1.93-2.01,.75-.45,1.61-.7,2.49-.7,1.32-.08,2.61,.46,3.46,1.47,.82,1.09,1.23,2.44,1.18,3.8,.01,.43-.03,.85-.11,1.27h-7.13c.05,.87,.43,1.68,1.06,2.28,.62,.55,1.42,.84,2.25,.81,.46,0,.92-.07,1.36-.22,.44-.15,.85-.35,1.24-.6l.89,1.63c-.56,.36-1.15,.65-1.78,.86-.66,.23-1.36,.34-2.06,.34-1.46,.03-2.88-.52-3.93-1.54h0Zm1.88-7.39c-.54,.55-.87,1.28-.94,2.05h4.98c.04-.72-.16-1.43-.57-2.02-.42-.51-1.06-.78-1.71-.74-.66,0-1.29,.25-1.76,.71h0Zm-32.75,7.39c-1.11-1.14-1.69-2.69-1.6-4.28-.03-1.09,.23-2.16,.74-3.12,.45-.83,1.12-1.53,1.93-2.01,.75-.45,1.61-.7,2.49-.7,1.32-.08,2.61,.46,3.46,1.47,.82,1.09,1.23,2.44,1.18,3.8,.01,.43-.03,.85-.11,1.27h-7.13c.05,.87,.43,1.68,1.06,2.28,.62,.55,1.42,.84,2.25,.81,.46,0,.92-.07,1.36-.22,.44-.15,.85-.35,1.25-.6l.89,1.63c-.56,.36-1.15,.65-1.78,.86-.66,.23-1.36,.34-2.06,.34-1.46,.03-2.88-.52-3.93-1.54Zm1.88-7.39c-.54,.55-.87,1.28-.94,2.05h4.98c.04-.72-.16-1.43-.57-2.02-.42-.51-1.06-.78-1.71-.74-.66,0-1.29,.25-1.76,.71Zm-22.9,7.82c-.57-.86-.85-1.89-.8-2.92v-10.38h2.65v3.03h2.86v2.06h-2.85v5.29c0,1.3,.53,1.95,1.58,1.94,.4,0,.8-.09,1.17-.25l.46,1.92c-.34,.12-.69,.21-1.04,.28-.41,.08-.83,.13-1.25,.12-1.05,.11-2.09-.3-2.77-1.11Zm-11.45-.43c-1.11-1.14-1.69-2.69-1.6-4.28-.03-1.09,.23-2.16,.74-3.12,.45-.83,1.12-1.52,1.93-2.01,.75-.45,1.61-.7,2.49-.7,1.32-.08,2.6,.46,3.46,1.47,.82,1.09,1.23,2.44,1.18,3.8,.01,.43-.03,.85-.11,1.27h-7.12c.06,.87,.43,1.68,1.06,2.28,.62,.55,1.42,.84,2.25,.81,.46,0,.92-.07,1.36-.22,.44-.15,.85-.35,1.25-.6l.89,1.63c-.56,.36-1.15,.65-1.78,.86-.66,.23-1.36,.34-2.06,.34-1.46,.03-2.88-.52-3.93-1.54h0Zm1.87-7.39c-.54,.55-.87,1.28-.94,2.05h4.98c.04-.72-.16-1.43-.57-2.02-.42-.51-1.06-.78-1.71-.74-.66,0-1.29,.25-1.76,.71h0Zm-12.93,8.65h-2.65v-14.8h5.05c1.36-.05,2.72,.28,3.91,.95,1.12,.77,1.72,2.09,1.58,3.44,.05,.98-.24,1.94-.81,2.74-.55,.7-1.31,1.22-2.16,1.49l3.56,6.17h-2.97l-3.22-5.79h-2.29v5.79h0Zm0-7.87h2.12c2.09,0,3.15-.85,3.15-2.53,.07-.69-.24-1.37-.81-1.77-.72-.38-1.53-.56-2.34-.51h-2.12v4.82Zm92.33,7.87v-6.63c.06-.68-.09-1.35-.42-1.94-.33-.4-.82-.61-1.34-.57-.46,0-.9,.11-1.29,.35-.46,.3-.88,.65-1.27,1.03v7.76h-2.63v-11.11h2.17l.18,1.49h.09c.5-.48,1.05-.9,1.64-1.24,.62-.35,1.32-.53,2.03-.52,1.01-.09,2,.35,2.63,1.15,.6,.97,.89,2.11,.82,3.26v6.97h-2.63Zm-24.41,0v-6.63c.06-.68-.09-1.35-.42-1.94-.31-.39-.79-.6-1.29-.57-.94,.13-1.78,.62-2.35,1.38v7.76h-2.63v-6.63c.06-.68-.09-1.35-.42-1.94-.32-.39-.81-.61-1.31-.57-.94,.13-1.78,.62-2.35,1.38v7.76h-2.63v-11.11h2.17l.18,1.51h.09c.46-.49,.98-.91,1.54-1.27,.57-.35,1.22-.53,1.89-.52,1.36-.11,2.63,.71,3.11,1.99,.5-.53,1.07-1.01,1.68-1.41,.57-.38,1.24-.58,1.93-.58,1.01-.08,2,.35,2.63,1.15,.62,.97,.91,2.11,.85,3.26v6.97h-2.65Zm-33.32,0v-11.11h2.17l.18,1.97h.09c.54-1.3,1.77-2.17,3.18-2.24,.44-.02,.87,.06,1.28,.23l-.46,2.26c-.18-.06-.36-.1-.55-.14-.2-.03-.41-.05-.62-.05-.51,.02-1,.2-1.4,.51-.58,.46-1.01,1.07-1.25,1.77v6.79h-2.63Zm-5.26,0v-11.11h2.63v11.11h-2.63Zm.16-12.49c-.3-.27-.47-.65-.46-1.05-.01-.41,.16-.8,.46-1.08,.68-.56,1.65-.56,2.33,0,.3,.27,.47,.67,.46,1.08,0,.4-.16,.79-.46,1.05-.68,.56-1.65,.56-2.33,0Zm42.08-9.39c-.62-.62-.96-1.47-.92-2.35-.03-1.14,.57-2.2,1.56-2.77,1.56-.8,3.28-1.26,5.04-1.35-.02-.54-.18-1.07-.48-1.53-.38-.47-.97-.71-1.57-.64-.55,0-1.1,.11-1.61,.32-.53,.22-1.05,.47-1.54,.77l-.96-1.74c.67-.4,1.37-.74,2.1-1.01,.8-.3,1.66-.45,2.51-.44,1.17-.09,2.32,.35,3.13,1.2,.77,1.04,1.14,2.31,1.04,3.6v6.58h-2.17l-.18-1.22h-.09c-.49,.42-1.03,.77-1.61,1.06-.58,.29-1.22,.43-1.86,.43-.89,.03-1.75-.3-2.39-.91h0Zm2.5-3.97c-.53,.28-.87,.82-.89,1.41-.04,.42,.14,.82,.46,1.09,.34,.24,.75,.36,1.16,.34,.44,0,.87-.1,1.25-.32,.43-.25,.84-.56,1.2-.9v-2.49c-1.1,.07-2.18,.37-3.17,.87h0Zm-13.47,4.04c-.42-.68-.63-1.48-.58-2.28V.2h2.63V13.46c-.02,.24,.04,.48,.18,.67,.1,.12,.24,.19,.39,.19,.14,0,.28-.02,.41-.05l.34,1.94c-.44,.17-.92,.24-1.39,.23-.76,.08-1.5-.24-1.98-.84Zm-11.81-.07c-.62-.62-.96-1.47-.92-2.35-.03-1.14,.57-2.2,1.56-2.77,1.56-.8,3.28-1.26,5.04-1.35-.02-.54-.18-1.07-.48-1.53-.38-.47-.97-.71-1.58-.64-.55,0-1.1,.11-1.61,.32-.53,.22-1.05,.47-1.54,.77l-.96-1.74c.67-.4,1.37-.74,2.1-1.01,.8-.3,1.66-.45,2.51-.44,1.17-.09,2.32,.35,3.14,1.2,.77,1.04,1.14,2.31,1.04,3.6v6.58h-2.17l-.18-1.22h-.09c-.49,.42-1.03,.77-1.61,1.06-.58,.29-1.22,.43-1.86,.43-.89,.03-1.75-.3-2.39-.91h0Zm2.5-3.97c-.53,.28-.87,.82-.89,1.41-.03,.42,.14,.82,.46,1.09,.34,.24,.75,.36,1.17,.34,.44,0,.87-.1,1.25-.32,.43-.25,.84-.56,1.2-.9v-2.49c-1.11,.07-2.19,.37-3.18,.87Zm-17.36,3.77c-.57-.86-.85-1.89-.8-2.92V2.04h2.65v3.03h2.86v2.06h-2.86v5.29c0,1.3,.53,1.95,1.58,1.95,.4,0,.8-.09,1.17-.25l.46,1.92c-.34,.11-.69,.21-1.04,.28-.41,.09-.83,.13-1.25,.12-1.05,.11-2.08-.3-2.76-1.11Zm-22.11-.05c-.6-.97-.89-2.11-.82-3.26V5.07h2.63v6.63c-.06,.67,.08,1.35,.41,1.94,.32,.4,.82,.61,1.32,.57,.46,0,.91-.12,1.29-.36,.46-.33,.87-.72,1.2-1.18V5.07h2.63v11.11h-2.15l-.21-1.63h-.07c-.45,.54-.99,1.01-1.6,1.38-.61,.36-1.31,.54-2.01,.52-1.01,.09-2-.35-2.63-1.15Zm12.61,.71c-.71-.26-1.37-.63-1.96-1.1l1.23-1.67c.46,.37,.96,.67,1.5,.92,.51,.22,1.06,.33,1.61,.33,.48,.04,.96-.09,1.35-.37,.28-.24,.44-.59,.43-.96,0-.48-.31-.9-.75-1.07-.5-.25-1.05-.49-1.64-.71-.76-.28-1.48-.65-2.14-1.12-.68-.48-1.07-1.28-1.02-2.11-.02-.92,.39-1.8,1.11-2.39,.85-.66,1.91-1,2.98-.94,.72-.01,1.44,.13,2.1,.41,.58,.24,1.12,.55,1.62,.93l-1.21,1.59c-.37-.27-.78-.51-1.2-.69-.4-.17-.83-.26-1.27-.26-.44-.04-.89,.09-1.25,.35-.26,.22-.4,.54-.4,.87,0,.45,.29,.85,.71,1,.53,.25,1.07,.47,1.62,.66,.77,.29,1.5,.67,2.18,1.12,.72,.51,1.11,1.37,1.04,2.25,0,.94-.4,1.83-1.12,2.43-.92,.73-2.08,1.09-3.24,1.01-.78,0-1.56-.16-2.28-.45Zm-24.76,.17h-2.69l4.86-14.79h3.11l4.86,14.79h-2.78l-1.17-4h-5.02l-1.17,4h0Zm3.01-10.28c-.22,.81-.45,1.62-.7,2.41l-.53,1.81h3.82l-.52-1.81c-.24-.76-.47-1.58-.7-2.42-.2-.74-.41-1.54-.65-2.47h-.09c-.19,.8-.4,1.63-.62,2.48Zm87.07,10.28v-6.63c.06-.68-.09-1.35-.42-1.95-.33-.4-.82-.61-1.34-.57-.45,0-.9,.11-1.29,.35-.46,.3-.88,.65-1.27,1.03v7.76h-2.62V5.07h2.17l.18,1.49h.09c.5-.48,1.05-.9,1.64-1.24,.62-.35,1.32-.53,2.03-.52,1.01-.09,2,.35,2.63,1.15,.6,.97,.89,2.11,.82,3.26v6.97h-2.63Zm-23.76,0V5.07h2.62v11.11h-2.62Zm-25.22,0V5.07h2.17l.18,1.97h.09c.54-1.3,1.77-2.17,3.18-2.24,.44-.02,.87,.06,1.28,.23l-.45,2.26c-.18-.06-.36-.1-.55-.14-.2-.03-.41-.05-.62-.05-.51,.02-1,.2-1.4,.51-.58,.46-1.01,1.07-1.25,1.78v6.79h-2.63Zm25.38-12.49c-.3-.27-.47-.65-.46-1.05-.01-.41,.15-.8,.46-1.07,.68-.56,1.65-.56,2.33,0,.3,.27,.47,.67,.46,1.07,0,.4-.16,.79-.46,1.05-.68,.56-1.65,.56-2.33,0Z"/>
</svg>